<svg xmlns="http://www.w3.org/2000/svg" viewBox="0 0 32 32"><defs><style>.cls-1{fill:#26a69a;}.cls-2{fill:#fff;}</style></defs><g id="Warstwa_2" data-name="Warstwa 2"><g id="Warstwa_1-2" data-name="Warstwa 1"><circle class="cls-1" cx="16" cy="16" r="16"/><path class="cls-2" d="M23.45,23.45h-4l.68-2.14.62-.16h0l1.45-.32a.5.5,0,0,0-.24-1l-.87.18L21,18.82l1.62-.26h0l.83-.13v5Zm-4.84-6.57h0v-.28l0,0v0l0,0h0l0,0-.58-.59.78-2.43,2.37.57.88,3.66-1.52.24a.5.5,0,0,0-.42.51l.09,1.87-.5.13h-.06l0,0h-.06l0,0h0l0,0,0,0h0v0l0,0,0,0h0l0,0v0l0,0v0h0l-.85,2.7H17.6ZM9.8,18.73l2-1.05a.5.5,0,0,0-.46-.88l-.4.21.08-3.2,2.22-1.23.11,3.68.4,4.71H12a.5.5,0,1,0,0,1h1.81L14,23.45H8.68ZM14.75,21l-.41-4.76-.13-4.48s0,0,0-.05h0a.09.09,0,0,0,0-.05h0l0,0h0l0,0h0l-.46-.89v-1h0L17,8.55H18.2l.11.08v1.2l-.22,1.42h-.87a.5.5,0,1,0,0,1h.72l-.07.45-.55,1.73-.2.64-.45-.46a.5.5,0,0,0-.72.69l1,1.06h0l.11.11.5.51-1,6.48H15L14.83,22m9.44-4.49a.46.46,0,0,0-.4-.11l-1,.15-1-4a.5.5,0,0,0-.37-.36l-2.67-.64,0-.24h2a.5.5,0,1,0,0-1H19.1l.19-1.31a.22.22,0,0,0,0-.08V8.38a.51.51,0,0,0-.2-.4l-.45-.33a.5.5,0,0,0-.29-.09H16.89a.44.44,0,0,0-.16,0L13,8.79a.51.51,0,0,0-.34.48v1.48a.46.46,0,0,0,.06.23l.29.56-2.76,1.54a.5.5,0,0,0-.25.42l-.1,4-.8.42,0,0h0l0,0h0l0,0H9l0,0H9l0,0v0l0,0h0v.09h0L7.57,23.83a.51.51,0,0,0,.09.43.5.5,0,0,0,.39.18H24a.49.49,0,0,0,.49-.49v-6.1A.49.49,0,0,0,24.27,17.47Z"/><path class="cls-2" d="M10.54,21H10a.5.5,0,1,0,0,1h.5a.5.5,0,0,0,0-1Z"/></g></g></svg>